<mxfile host="app.diagrams.net" modified="2023-04-17T04:45:37.210Z" agent="Mozilla/5.0 (Windows NT 10.0; Win64; x64) AppleWebKit/537.36 (KHTML, like Gecko) Chrome/112.0.0.0 Safari/537.36" etag="v1AIYIdUoaHPc6gj5GGg" version="21.1.8" type="device">
  <diagram name="Page-1" id="TWJgYgBKKmctXV4v95Et">
    <mxGraphModel dx="1434" dy="802" grid="1" gridSize="10" guides="1" tooltips="1" connect="1" arrows="1" fold="1" page="1" pageScale="1" pageWidth="850" pageHeight="1100" math="0" shadow="0">
      <root>
        <mxCell id="0" />
        <mxCell id="1" parent="0" />
        <mxCell id="7N_FxN8OKdaaHBMC56yi-1" value="&lt;font style=&quot;font-size: 20px;&quot;&gt;1&lt;/font&gt;" style="rounded=0;whiteSpace=wrap;html=1;fontSize=20;" vertex="1" parent="1">
          <mxGeometry x="50" y="150" width="60" height="60" as="geometry" />
        </mxCell>
        <mxCell id="7N_FxN8OKdaaHBMC56yi-2" value="-1" style="rounded=0;whiteSpace=wrap;html=1;fontSize=20;" vertex="1" parent="1">
          <mxGeometry x="110" y="150" width="60" height="60" as="geometry" />
        </mxCell>
        <mxCell id="7N_FxN8OKdaaHBMC56yi-3" value="-2" style="rounded=0;whiteSpace=wrap;html=1;fontSize=20;" vertex="1" parent="1">
          <mxGeometry x="170" y="150" width="60" height="60" as="geometry" />
        </mxCell>
        <mxCell id="7N_FxN8OKdaaHBMC56yi-4" value="-3" style="rounded=0;whiteSpace=wrap;html=1;fontSize=20;" vertex="1" parent="1">
          <mxGeometry x="230" y="150" width="60" height="60" as="geometry" />
        </mxCell>
        <mxCell id="7N_FxN8OKdaaHBMC56yi-13" value="3" style="rounded=0;whiteSpace=wrap;html=1;fontSize=20;" vertex="1" parent="1">
          <mxGeometry x="290" y="150" width="60" height="60" as="geometry" />
        </mxCell>
        <mxCell id="7N_FxN8OKdaaHBMC56yi-14" value="-4" style="rounded=0;whiteSpace=wrap;html=1;fontSize=20;" vertex="1" parent="1">
          <mxGeometry x="350" y="150" width="60" height="60" as="geometry" />
        </mxCell>
        <mxCell id="7N_FxN8OKdaaHBMC56yi-15" value="-5" style="rounded=0;whiteSpace=wrap;html=1;fontSize=20;" vertex="1" parent="1">
          <mxGeometry x="410" y="150" width="60" height="60" as="geometry" />
        </mxCell>
        <mxCell id="7N_FxN8OKdaaHBMC56yi-16" value="-6" style="rounded=0;whiteSpace=wrap;html=1;fontSize=20;" vertex="1" parent="1">
          <mxGeometry x="470" y="150" width="60" height="60" as="geometry" />
        </mxCell>
        <mxCell id="7N_FxN8OKdaaHBMC56yi-17" value="0" style="rounded=0;whiteSpace=wrap;html=1;fontSize=20;" vertex="1" parent="1">
          <mxGeometry x="530" y="150" width="60" height="60" as="geometry" />
        </mxCell>
        <mxCell id="7N_FxN8OKdaaHBMC56yi-18" value="2" style="rounded=0;whiteSpace=wrap;html=1;fontSize=20;" vertex="1" parent="1">
          <mxGeometry x="590" y="150" width="60" height="60" as="geometry" />
        </mxCell>
        <mxCell id="7N_FxN8OKdaaHBMC56yi-19" value="-7" style="rounded=0;whiteSpace=wrap;html=1;fontSize=20;" vertex="1" parent="1">
          <mxGeometry x="650" y="150" width="60" height="60" as="geometry" />
        </mxCell>
        <mxCell id="7N_FxN8OKdaaHBMC56yi-20" value="-8" style="rounded=0;whiteSpace=wrap;html=1;fontSize=20;" vertex="1" parent="1">
          <mxGeometry x="710" y="150" width="60" height="60" as="geometry" />
        </mxCell>
        <mxCell id="7N_FxN8OKdaaHBMC56yi-21" value="2" style="rounded=0;whiteSpace=wrap;html=1;fontSize=20;" vertex="1" parent="1">
          <mxGeometry x="50" y="230" width="60" height="60" as="geometry" />
        </mxCell>
        <mxCell id="7N_FxN8OKdaaHBMC56yi-22" value="-1" style="rounded=0;whiteSpace=wrap;html=1;fontSize=20;" vertex="1" parent="1">
          <mxGeometry x="110" y="230" width="60" height="60" as="geometry" />
        </mxCell>
        <mxCell id="7N_FxN8OKdaaHBMC56yi-23" value="-2" style="rounded=0;whiteSpace=wrap;html=1;fontSize=20;" vertex="1" parent="1">
          <mxGeometry x="170" y="230" width="60" height="60" as="geometry" />
        </mxCell>
        <mxCell id="7N_FxN8OKdaaHBMC56yi-24" value="-3" style="rounded=0;whiteSpace=wrap;html=1;fontSize=20;" vertex="1" parent="1">
          <mxGeometry x="230" y="230" width="60" height="60" as="geometry" />
        </mxCell>
        <mxCell id="7N_FxN8OKdaaHBMC56yi-25" value="1" style="rounded=0;whiteSpace=wrap;html=1;fontSize=20;" vertex="1" parent="1">
          <mxGeometry x="290" y="230" width="60" height="60" as="geometry" />
        </mxCell>
        <mxCell id="7N_FxN8OKdaaHBMC56yi-26" value="3" style="rounded=0;whiteSpace=wrap;html=1;fontSize=20;" vertex="1" parent="1">
          <mxGeometry x="350" y="230" width="60" height="60" as="geometry" />
        </mxCell>
        <mxCell id="7N_FxN8OKdaaHBMC56yi-27" value="-4" style="rounded=0;whiteSpace=wrap;html=1;fontSize=20;" vertex="1" parent="1">
          <mxGeometry x="410" y="230" width="60" height="60" as="geometry" />
        </mxCell>
        <mxCell id="7N_FxN8OKdaaHBMC56yi-28" value="-5" style="rounded=0;whiteSpace=wrap;html=1;fontSize=20;" vertex="1" parent="1">
          <mxGeometry x="470" y="230" width="60" height="60" as="geometry" />
        </mxCell>
        <mxCell id="7N_FxN8OKdaaHBMC56yi-29" value="0" style="rounded=0;whiteSpace=wrap;html=1;fontSize=20;" vertex="1" parent="1">
          <mxGeometry x="530" y="230" width="60" height="60" as="geometry" />
        </mxCell>
        <mxCell id="7N_FxN8OKdaaHBMC56yi-30" value="-6" style="rounded=0;whiteSpace=wrap;html=1;fontSize=20;" vertex="1" parent="1">
          <mxGeometry x="590" y="230" width="60" height="60" as="geometry" />
        </mxCell>
        <mxCell id="7N_FxN8OKdaaHBMC56yi-31" value="-7" style="rounded=0;whiteSpace=wrap;html=1;fontSize=20;" vertex="1" parent="1">
          <mxGeometry x="650" y="230" width="60" height="60" as="geometry" />
        </mxCell>
        <mxCell id="7N_FxN8OKdaaHBMC56yi-32" value="-8" style="rounded=0;whiteSpace=wrap;html=1;fontSize=20;" vertex="1" parent="1">
          <mxGeometry x="710" y="230" width="60" height="60" as="geometry" />
        </mxCell>
        <mxCell id="7N_FxN8OKdaaHBMC56yi-33" value="1" style="rounded=0;whiteSpace=wrap;html=1;fontSize=20;" vertex="1" parent="1">
          <mxGeometry x="290" y="340" width="60" height="60" as="geometry" />
        </mxCell>
        <mxCell id="7N_FxN8OKdaaHBMC56yi-34" value="3" style="rounded=0;whiteSpace=wrap;html=1;fontSize=20;" vertex="1" parent="1">
          <mxGeometry x="350" y="340" width="60" height="60" as="geometry" />
        </mxCell>
        <mxCell id="7N_FxN8OKdaaHBMC56yi-35" value="0" style="rounded=0;whiteSpace=wrap;html=1;fontSize=20;" vertex="1" parent="1">
          <mxGeometry x="410" y="340" width="60" height="60" as="geometry" />
        </mxCell>
        <mxCell id="7N_FxN8OKdaaHBMC56yi-36" value="2" style="rounded=0;whiteSpace=wrap;html=1;fontSize=20;" vertex="1" parent="1">
          <mxGeometry x="470" y="340" width="60" height="60" as="geometry" />
        </mxCell>
        <mxCell id="7N_FxN8OKdaaHBMC56yi-37" value="2" style="rounded=0;whiteSpace=wrap;html=1;fontSize=20;" vertex="1" parent="1">
          <mxGeometry x="290" y="420" width="60" height="60" as="geometry" />
        </mxCell>
        <mxCell id="7N_FxN8OKdaaHBMC56yi-38" value="1" style="rounded=0;whiteSpace=wrap;html=1;fontSize=20;" vertex="1" parent="1">
          <mxGeometry x="350" y="420" width="60" height="60" as="geometry" />
        </mxCell>
        <mxCell id="7N_FxN8OKdaaHBMC56yi-39" value="3" style="rounded=0;whiteSpace=wrap;html=1;fontSize=20;" vertex="1" parent="1">
          <mxGeometry x="410" y="420" width="60" height="60" as="geometry" />
        </mxCell>
        <mxCell id="7N_FxN8OKdaaHBMC56yi-40" value="0" style="rounded=0;whiteSpace=wrap;html=1;fontSize=20;" vertex="1" parent="1">
          <mxGeometry x="470" y="420" width="60" height="60" as="geometry" />
        </mxCell>
        <mxCell id="7N_FxN8OKdaaHBMC56yi-65" value="" style="endArrow=none;dashed=1;html=1;dashPattern=1 3;strokeWidth=2;rounded=0;" edge="1" parent="1">
          <mxGeometry width="50" height="50" relative="1" as="geometry">
            <mxPoint x="350" y="500" as="sourcePoint" />
            <mxPoint x="350" y="320" as="targetPoint" />
          </mxGeometry>
        </mxCell>
        <mxCell id="7N_FxN8OKdaaHBMC56yi-67" value="" style="endArrow=none;dashed=1;html=1;dashPattern=1 3;strokeWidth=2;rounded=0;" edge="1" parent="1">
          <mxGeometry width="50" height="50" relative="1" as="geometry">
            <mxPoint x="470" y="500" as="sourcePoint" />
            <mxPoint x="470" y="320" as="targetPoint" />
          </mxGeometry>
        </mxCell>
        <mxCell id="7N_FxN8OKdaaHBMC56yi-68" value="0" style="rounded=0;whiteSpace=wrap;html=1;fontSize=20;" vertex="1" parent="1">
          <mxGeometry x="290" y="590" width="60" height="60" as="geometry" />
        </mxCell>
        <mxCell id="7N_FxN8OKdaaHBMC56yi-69" value="1" style="rounded=0;whiteSpace=wrap;html=1;fontSize=20;" vertex="1" parent="1">
          <mxGeometry x="350" y="590" width="60" height="60" as="geometry" />
        </mxCell>
        <mxCell id="7N_FxN8OKdaaHBMC56yi-70" value="3" style="rounded=0;whiteSpace=wrap;html=1;fontSize=20;" vertex="1" parent="1">
          <mxGeometry x="410" y="590" width="60" height="60" as="geometry" />
        </mxCell>
        <mxCell id="7N_FxN8OKdaaHBMC56yi-71" value="2" style="rounded=0;whiteSpace=wrap;html=1;fontSize=20;" vertex="1" parent="1">
          <mxGeometry x="470" y="590" width="60" height="60" as="geometry" />
        </mxCell>
        <mxCell id="7N_FxN8OKdaaHBMC56yi-72" value="2" style="rounded=0;whiteSpace=wrap;html=1;fontSize=20;" vertex="1" parent="1">
          <mxGeometry x="290" y="510" width="60" height="60" as="geometry" />
        </mxCell>
        <mxCell id="7N_FxN8OKdaaHBMC56yi-73" value="3" style="rounded=0;whiteSpace=wrap;html=1;fontSize=20;" vertex="1" parent="1">
          <mxGeometry x="350" y="510" width="60" height="60" as="geometry" />
        </mxCell>
        <mxCell id="7N_FxN8OKdaaHBMC56yi-74" value="0" style="rounded=0;whiteSpace=wrap;html=1;fontSize=20;" vertex="1" parent="1">
          <mxGeometry x="410" y="510" width="60" height="60" as="geometry" />
        </mxCell>
        <mxCell id="7N_FxN8OKdaaHBMC56yi-75" value="1" style="rounded=0;whiteSpace=wrap;html=1;fontSize=20;" vertex="1" parent="1">
          <mxGeometry x="470" y="510" width="60" height="60" as="geometry" />
        </mxCell>
        <mxCell id="7N_FxN8OKdaaHBMC56yi-78" value="&lt;font style=&quot;font-size: 20px;&quot;&gt;2&lt;/font&gt;" style="rounded=0;whiteSpace=wrap;html=1;fontSize=20;" vertex="1" parent="1">
          <mxGeometry x="50" y="700" width="60" height="60" as="geometry" />
        </mxCell>
        <mxCell id="7N_FxN8OKdaaHBMC56yi-79" value="-1" style="rounded=0;whiteSpace=wrap;html=1;fontSize=20;" vertex="1" parent="1">
          <mxGeometry x="110" y="700" width="60" height="60" as="geometry" />
        </mxCell>
        <mxCell id="7N_FxN8OKdaaHBMC56yi-80" value="-2" style="rounded=0;whiteSpace=wrap;html=1;fontSize=20;" vertex="1" parent="1">
          <mxGeometry x="170" y="700" width="60" height="60" as="geometry" />
        </mxCell>
        <mxCell id="7N_FxN8OKdaaHBMC56yi-81" value="-3" style="rounded=0;whiteSpace=wrap;html=1;fontSize=20;" vertex="1" parent="1">
          <mxGeometry x="230" y="700" width="60" height="60" as="geometry" />
        </mxCell>
        <mxCell id="7N_FxN8OKdaaHBMC56yi-82" value="3" style="rounded=0;whiteSpace=wrap;html=1;fontSize=20;" vertex="1" parent="1">
          <mxGeometry x="290" y="700" width="60" height="60" as="geometry" />
        </mxCell>
        <mxCell id="7N_FxN8OKdaaHBMC56yi-83" value="-4" style="rounded=0;whiteSpace=wrap;html=1;fontSize=20;" vertex="1" parent="1">
          <mxGeometry x="350" y="700" width="60" height="60" as="geometry" />
        </mxCell>
        <mxCell id="7N_FxN8OKdaaHBMC56yi-84" value="-5" style="rounded=0;whiteSpace=wrap;html=1;fontSize=20;" vertex="1" parent="1">
          <mxGeometry x="410" y="700" width="60" height="60" as="geometry" />
        </mxCell>
        <mxCell id="7N_FxN8OKdaaHBMC56yi-85" value="-6" style="rounded=0;whiteSpace=wrap;html=1;fontSize=20;" vertex="1" parent="1">
          <mxGeometry x="470" y="700" width="60" height="60" as="geometry" />
        </mxCell>
        <mxCell id="7N_FxN8OKdaaHBMC56yi-86" value="0" style="rounded=0;whiteSpace=wrap;html=1;fontSize=20;" vertex="1" parent="1">
          <mxGeometry x="530" y="700" width="60" height="60" as="geometry" />
        </mxCell>
        <mxCell id="7N_FxN8OKdaaHBMC56yi-87" value="1" style="rounded=0;whiteSpace=wrap;html=1;fontSize=20;" vertex="1" parent="1">
          <mxGeometry x="590" y="700" width="60" height="60" as="geometry" />
        </mxCell>
        <mxCell id="7N_FxN8OKdaaHBMC56yi-88" value="-7" style="rounded=0;whiteSpace=wrap;html=1;fontSize=20;" vertex="1" parent="1">
          <mxGeometry x="650" y="700" width="60" height="60" as="geometry" />
        </mxCell>
        <mxCell id="7N_FxN8OKdaaHBMC56yi-89" value="-8" style="rounded=0;whiteSpace=wrap;html=1;fontSize=20;" vertex="1" parent="1">
          <mxGeometry x="710" y="700" width="60" height="60" as="geometry" />
        </mxCell>
        <mxCell id="7N_FxN8OKdaaHBMC56yi-90" value="0" style="rounded=0;whiteSpace=wrap;html=1;fontSize=20;" vertex="1" parent="1">
          <mxGeometry x="50" y="780" width="60" height="60" as="geometry" />
        </mxCell>
        <mxCell id="7N_FxN8OKdaaHBMC56yi-91" value="-1" style="rounded=0;whiteSpace=wrap;html=1;fontSize=20;" vertex="1" parent="1">
          <mxGeometry x="110" y="780" width="60" height="60" as="geometry" />
        </mxCell>
        <mxCell id="7N_FxN8OKdaaHBMC56yi-92" value="-2" style="rounded=0;whiteSpace=wrap;html=1;fontSize=20;" vertex="1" parent="1">
          <mxGeometry x="170" y="780" width="60" height="60" as="geometry" />
        </mxCell>
        <mxCell id="7N_FxN8OKdaaHBMC56yi-93" value="-3" style="rounded=0;whiteSpace=wrap;html=1;fontSize=20;" vertex="1" parent="1">
          <mxGeometry x="230" y="780" width="60" height="60" as="geometry" />
        </mxCell>
        <mxCell id="7N_FxN8OKdaaHBMC56yi-94" value="1" style="rounded=0;whiteSpace=wrap;html=1;fontSize=20;" vertex="1" parent="1">
          <mxGeometry x="290" y="780" width="60" height="60" as="geometry" />
        </mxCell>
        <mxCell id="7N_FxN8OKdaaHBMC56yi-95" value="3" style="rounded=0;whiteSpace=wrap;html=1;fontSize=20;" vertex="1" parent="1">
          <mxGeometry x="350" y="780" width="60" height="60" as="geometry" />
        </mxCell>
        <mxCell id="7N_FxN8OKdaaHBMC56yi-96" value="-4" style="rounded=0;whiteSpace=wrap;html=1;fontSize=20;" vertex="1" parent="1">
          <mxGeometry x="410" y="780" width="60" height="60" as="geometry" />
        </mxCell>
        <mxCell id="7N_FxN8OKdaaHBMC56yi-97" value="-5" style="rounded=0;whiteSpace=wrap;html=1;fontSize=20;" vertex="1" parent="1">
          <mxGeometry x="470" y="780" width="60" height="60" as="geometry" />
        </mxCell>
        <mxCell id="7N_FxN8OKdaaHBMC56yi-98" value="2" style="rounded=0;whiteSpace=wrap;html=1;fontSize=20;" vertex="1" parent="1">
          <mxGeometry x="530" y="780" width="60" height="60" as="geometry" />
        </mxCell>
        <mxCell id="7N_FxN8OKdaaHBMC56yi-99" value="-6" style="rounded=0;whiteSpace=wrap;html=1;fontSize=20;" vertex="1" parent="1">
          <mxGeometry x="590" y="780" width="60" height="60" as="geometry" />
        </mxCell>
        <mxCell id="7N_FxN8OKdaaHBMC56yi-100" value="-7" style="rounded=0;whiteSpace=wrap;html=1;fontSize=20;" vertex="1" parent="1">
          <mxGeometry x="650" y="780" width="60" height="60" as="geometry" />
        </mxCell>
        <mxCell id="7N_FxN8OKdaaHBMC56yi-101" value="-8" style="rounded=0;whiteSpace=wrap;html=1;fontSize=20;" vertex="1" parent="1">
          <mxGeometry x="710" y="780" width="60" height="60" as="geometry" />
        </mxCell>
        <mxCell id="7N_FxN8OKdaaHBMC56yi-102" value="" style="shape=flexArrow;endArrow=classic;html=1;rounded=0;" edge="1" parent="1">
          <mxGeometry width="50" height="50" relative="1" as="geometry">
            <mxPoint x="230" y="330" as="sourcePoint" />
            <mxPoint x="230" y="410" as="targetPoint" />
          </mxGeometry>
        </mxCell>
        <mxCell id="7N_FxN8OKdaaHBMC56yi-103" value="" style="shape=flexArrow;endArrow=classic;html=1;rounded=0;" edge="1" parent="1">
          <mxGeometry width="50" height="50" relative="1" as="geometry">
            <mxPoint x="229" y="610" as="sourcePoint" />
            <mxPoint x="229" y="690" as="targetPoint" />
          </mxGeometry>
        </mxCell>
        <mxCell id="7N_FxN8OKdaaHBMC56yi-104" value="" style="shape=flexArrow;endArrow=classic;html=1;rounded=0;" edge="1" parent="1">
          <mxGeometry width="50" height="50" relative="1" as="geometry">
            <mxPoint x="229" y="470" as="sourcePoint" />
            <mxPoint x="229" y="550" as="targetPoint" />
          </mxGeometry>
        </mxCell>
      </root>
    </mxGraphModel>
  </diagram>
</mxfile>
